<?xml version="1.0" encoding="UTF-8"?>
<svg version="1.1" xmlns="http://www.w3.org/2000/svg" width="42" height="42">
<path d="M0 0 C2.0078125 0.1328125 2.0078125 0.1328125 5.0078125 1.1328125 C5.1521875 2.2053125 5.2965625 3.2778125 5.4453125 4.3828125 C5.85931258 9.11298809 5.85931258 9.11298809 8.0078125 13.1328125 C8.471875 14.586875 8.471875 14.586875 8.9453125 16.0703125 C9.78030268 19.19615169 9.78030268 19.19615169 12.0078125 21.1328125 C12.0078125 22.4528125 12.0078125 23.7728125 12.0078125 25.1328125 C12.6678125 25.1328125 13.3278125 25.1328125 14.0078125 25.1328125 C13.6778125 23.4828125 13.3478125 21.8328125 13.0078125 20.1328125 C14.6578125 20.4628125 16.3078125 20.7928125 18.0078125 21.1328125 C18.0078125 22.7828125 18.0078125 24.4328125 18.0078125 26.1328125 C18.6678125 26.4628125 19.3278125 26.7928125 20.0078125 27.1328125 C20.0078125 31.7528125 20.0078125 36.3728125 20.0078125 41.1328125 C6.1478125 41.1328125 -7.7121875 41.1328125 -21.9921875 41.1328125 C-21.9921875 36.8428125 -21.9921875 32.5528125 -21.9921875 28.1328125 C-20.6721875 28.4628125 -19.3521875 28.7928125 -17.9921875 29.1328125 C-17.8890625 28.4521875 -17.7859375 27.7715625 -17.6796875 27.0703125 C-16.9921875 24.1328125 -16.9921875 24.1328125 -15.4921875 20.7578125 C-13.99497015 17.13953724 -13.38793461 14.01113415 -12.9921875 10.1328125 C-12.0021875 10.1328125 -11.0121875 10.1328125 -9.9921875 10.1328125 C-9.78722656 9.49472656 -9.58226562 8.85664063 -9.37109375 8.19921875 C-9.10167969 7.37292969 -8.83226562 6.54664063 -8.5546875 5.6953125 C-8.15443359 4.45974609 -8.15443359 4.45974609 -7.74609375 3.19921875 C-6.25276996 -0.89388118 -4.06487186 0.01499953 0 0 Z M12.0078125 33.1328125 C11.6778125 33.7928125 11.3478125 34.4528125 11.0078125 35.1328125 C11.9978125 35.1328125 12.9878125 35.1328125 14.0078125 35.1328125 C14.0078125 34.4728125 14.0078125 33.8128125 14.0078125 33.1328125 C13.3478125 33.1328125 12.6878125 33.1328125 12.0078125 33.1328125 Z M16.0078125 33.1328125 C16.3378125 33.7928125 16.6678125 34.4528125 17.0078125 35.1328125 C17.3378125 34.4728125 17.6678125 33.8128125 18.0078125 33.1328125 C17.3478125 33.1328125 16.6878125 33.1328125 16.0078125 33.1328125 Z " fill="#3F3028" transform="translate(21.9921875,0.8671875)"/>
<path d="M0 0 C2.19191368 2.19191368 2.27869352 3.11477408 3 6 C3.66 6.66 4.32 7.32 5 8 C5.64752475 20.73465347 5.64752475 20.73465347 2.75 24.71875 C1 26 1 26 -1.26171875 26.07421875 C-2.06222656 25.94660156 -2.86273438 25.81898437 -3.6875 25.6875 C-4.49574219 25.56761719 -5.30398437 25.44773437 -6.13671875 25.32421875 C-6.75160156 25.21722656 -7.36648437 25.11023438 -8 25 C-8.2475 24.21625 -8.495 23.4325 -8.75 22.625 C-10.15389099 19.67682892 -11.00675737 19.0975223 -14 18 C-12.04783565 16.04783565 -10.46800047 15.15173355 -8 14 C-7.67 14.33 -7.34 14.66 -7 15 C-6.814375 13.329375 -6.814375 13.329375 -6.625 11.625 C-6 8 -6 8 -4 6 C-3.67 5.154375 -3.34 4.30875 -3 3.4375 C-2 1 -2 1 0 0 Z " fill="#1A3C64" transform="translate(29,14)"/>
<path d="M0 0 C2.0078125 0.1328125 2.0078125 0.1328125 5.0078125 1.1328125 C5.1521875 2.2053125 5.2965625 3.2778125 5.4453125 4.3828125 C5.83097796 7.91017553 5.83097796 7.91017553 6.8203125 10.1953125 C7.0078125 12.1328125 7.0078125 12.1328125 5.3828125 15.3828125 C3.0078125 18.1328125 3.0078125 18.1328125 0.2578125 18.5078125 C-0.4846875 18.3840625 -1.2271875 18.2603125 -1.9921875 18.1328125 C-2.3221875 17.1428125 -2.6521875 16.1528125 -2.9921875 15.1328125 C-4.6421875 15.1328125 -6.2921875 15.1328125 -7.9921875 15.1328125 C-8.9821875 17.6078125 -8.9821875 17.6078125 -9.9921875 20.1328125 C-10.6521875 19.8028125 -11.3121875 19.4728125 -11.9921875 19.1328125 C-12.40625 17.06640625 -12.40625 17.06640625 -12.6171875 14.5703125 C-12.69195312 13.74402344 -12.76671875 12.91773438 -12.84375 12.06640625 C-12.89273437 11.42832031 -12.94171875 10.79023438 -12.9921875 10.1328125 C-12.0021875 10.1328125 -11.0121875 10.1328125 -9.9921875 10.1328125 C-9.78722656 9.49472656 -9.58226562 8.85664063 -9.37109375 8.19921875 C-9.10167969 7.37292969 -8.83226562 6.54664063 -8.5546875 5.6953125 C-8.15443359 4.45974609 -8.15443359 4.45974609 -7.74609375 3.19921875 C-6.25276996 -0.89388118 -4.06487186 0.01499953 0 0 Z " fill="#49271B" transform="translate(21.9921875,0.8671875)"/>
<path d="M0 0 C0.99 1.32 1.98 2.64 3 4 C3.33 4.33 3.66 4.66 4 5 C5.32 3.68 6.64 2.36 8 1 C11 2 11 2 12 4 C14.52733235 4.65555119 14.52733235 4.65555119 17 5 C17.33 4.34 17.66 3.68 18 3 C17.125 6.875 17.125 6.875 16 8 C15.60851239 9.51165654 15.26027543 11.03469632 14.9375 12.5625 C14.76089844 13.38878906 14.58429687 14.21507812 14.40234375 15.06640625 C14.26957031 15.70449219 14.13679688 16.34257812 14 17 C13.34 16.34 12.68 15.68 12 15 C9.525 16.485 9.525 16.485 7 18 C4.8480563 14.77208445 4.79913557 13.71599191 5 10 C3.35 10 1.7 10 0 10 C0 6.7 0 3.4 0 0 Z " fill="#0E192B" transform="translate(8,14)"/>
<path d="M0 0 C1.65 0.33 3.3 0.66 5 1 C5 2.65 5 4.3 5 6 C5.66 6.33 6.32 6.66 7 7 C7.25 14.625 7.25 14.625 5 18 C4.67 16.68 4.34 15.36 4 14 C2.02 14 0.04 14 -2 14 C-2 10.04 -2 6.08 -2 2 C-1.67 2.99 -1.34 3.98 -1 5 C-0.34 5 0.32 5 1 5 C0.67 3.35 0.34 1.7 0 0 Z " fill="#24211C" transform="translate(35,21)"/>
<path d="M0 0 C0.78375 0.04125 1.5675 0.0825 2.375 0.125 C4.43481595 4.48696319 4.43481595 4.48696319 4.1875 7.125 C3.16776485 9.6351173 1.83164572 11.84503279 0.375 14.125 C-0.945 13.795 -2.265 13.465 -3.625 13.125 C-3.295 12.465 -2.965 11.805 -2.625 11.125 C-4.275 10.135 -5.925 9.145 -7.625 8.125 C-6.305 7.135 -4.985 6.145 -3.625 5.125 C-3.955 4.135 -4.285 3.145 -4.625 2.125 C-2.625 0.125 -2.625 0.125 0 0 Z " fill="#92593B" transform="translate(24.625,4.875)"/>
<path d="M0 0 C0.66 0 1.32 0 2 0 C2 0.66 2 1.32 2 2 C3.32 2 4.64 2 6 2 C6 3.98 6 5.96 6 8 C0.72 8 -4.56 8 -10 8 C-8.59794495 5.19588991 -6.73272707 4.46169122 -4 3 C-1.6875 2.3125 -1.6875 2.3125 0 2 C0 1.34 0 0.68 0 0 Z " fill="#513827" transform="translate(36,34)"/>
<path d="M0 0 C3 4 3 4 4 6 C5.6459651 7.68711423 7.31237149 9.3545622 9 11 C10 12 10 12 10.0625 14.5625 C10.041875 15.366875 10.02125 16.17125 10 17 C9.01 17.33 8.02 17.66 7 18 C4.8480563 14.77208445 4.79913557 13.71599191 5 10 C3.35 10 1.7 10 0 10 C0 6.7 0 3.4 0 0 Z " fill="#132540" transform="translate(8,14)"/>
<path d="M0 0 C0.99 0 1.98 0 3 0 C3.625 1.875 3.625 1.875 4 4 C3.34 4.66 2.68 5.32 2 6 C2 7.32 2 8.64 2 10 C0.68 10 -0.64 10 -2 10 C-1.34 11.32 -0.68 12.64 0 14 C-0.99 14 -1.98 14 -3 14 C-3.33 13.01 -3.66 12.02 -4 11 C-6.00016466 9.79117904 -6.00016466 9.79117904 -8 9 C-6.04783565 7.04783565 -4.46800047 6.15173355 -2 5 C-1.67 5.33 -1.34 5.66 -1 6 C-0.67 4.02 -0.34 2.04 0 0 Z " fill="#525A67" transform="translate(23,23)"/>
<path d="M0 0 C2.0078125 0.1328125 2.0078125 0.1328125 5.0078125 1.1328125 C4.6778125 2.1228125 4.3478125 3.1128125 4.0078125 4.1328125 C0.7078125 4.4628125 -2.5921875 4.7928125 -5.9921875 5.1328125 C-5.9921875 6.4528125 -5.9921875 7.7728125 -5.9921875 9.1328125 C-6.9821875 8.8028125 -7.9721875 8.4728125 -8.9921875 8.1328125 C-6.78097192 0.02502204 -6.78097192 0.02502204 0 0 Z " fill="#0F0B08" transform="translate(21.9921875,0.8671875)"/>
<path d="M0 0 C1.32 0.66 2.64 1.32 4 2 C4.08333357 6.8333472 3.95261487 11.23692563 3 16 C0.525 15.01 0.525 15.01 -2 14 C-1.67 13.01 -1.34 12.02 -1 11 C-0.34 11 0.32 11 1 11 C0.84402344 10.28972656 0.68804688 9.57945313 0.52734375 8.84765625 C0.33269531 7.92855469 0.13804688 7.00945313 -0.0625 6.0625 C-0.25972656 5.14597656 -0.45695312 4.22945312 -0.66015625 3.28515625 C-0.82837891 2.15400391 -0.82837891 2.15400391 -1 1 C-0.67 0.67 -0.34 0.34 0 0 Z " fill="#2C4F7C" transform="translate(30,20)"/>
<path d="M0 0 C-0.51035831 4.3890815 -1.52214277 7.33708062 -4 11 C-4.66 10.67 -5.32 10.34 -6 10 C-6.4140625 7.93359375 -6.4140625 7.93359375 -6.625 5.4375 C-6.69976562 4.61121094 -6.77453125 3.78492188 -6.8515625 2.93359375 C-6.90054687 2.29550781 -6.94953125 1.65742188 -7 1 C-4.50935112 0.31292445 -2.62113708 0 0 0 Z " fill="#AA6239" transform="translate(16,10)"/>
<path d="M0 0 C3 1 3 1 4 3 C6.52733235 3.65555119 6.52733235 3.65555119 9 4 C9.33 3.34 9.66 2.68 10 2 C9.42655063 4.86724686 9.1385485 5.8614515 7 8 C3.63060567 7.66306057 1.57089417 6.11180592 -1 4 C-0.67 2.68 -0.34 1.36 0 0 Z " fill="#29180F" transform="translate(16,15)"/>
<path d="M0 0 C0.99 0 1.98 0 3 0 C2.67 1.98 2.34 3.96 2 6 C-0.97 6 -3.94 6 -7 6 C-5.62209707 3.24419414 -3.62850007 2.51138754 -1 1 C-0.67 0.67 -0.34 0.34 0 0 Z " fill="#825E48" transform="translate(33,36)"/>
<path d="M0 0 C3 1.8125 3 1.8125 6 4 C6 4.99 6 5.98 6 7 C4.02 7 2.04 7 0 7 C-0.33 6.34 -0.66 5.68 -1 5 C-0.67 4.34 -0.34 3.68 0 3 C-0.66 2.67 -1.32 2.34 -2 2 C-1.34 1.34 -0.68 0.68 0 0 Z " fill="#172E4E" transform="translate(6,24)"/>
<path d="M0 0 C2.9375 0.75 2.9375 0.75 6 2 C6.33 3.32 6.66 4.64 7 6 C4.03 5.67 1.06 5.34 -2 5 C-2 4.34 -2 3.68 -2 3 C-1.34 3 -0.68 3 0 3 C0 2.01 0 1.02 0 0 Z " fill="#162133" transform="translate(23,34)"/>
<path d="M0 0 C1.43861294 0.08746284 2.87597508 0.19565348 4.3125 0.3125 C5.11300781 0.37050781 5.91351563 0.42851563 6.73828125 0.48828125 C9.36272334 1.08206694 10.30820672 1.95780294 12 4 C11.01 4.66 10.02 5.32 9 6 C8.67 5.01 8.34 4.02 8 3 C5.23735711 2.40267181 2.83967231 2 0 2 C0 1.34 0 0.68 0 0 Z " fill="#213F67" transform="translate(21,33)"/>
<path d="M0 0 C-0.33 2.31 -0.66 4.62 -1 7 C-0.34 7.33 0.32 7.66 1 8 C0.01 8.33 -0.98 8.66 -2 9 C-4 8 -4 8 -4.8125 5.625 C-5 3 -5 3 -3.6875 1.1875 C-2 0 -2 0 0 0 Z " fill="#0C203C" transform="translate(29,25)"/>
<path d="M0 0 C0.33 0.66 0.66 1.32 1 2 C2.65 2 4.3 2 6 2 C6.66 4.64 7.32 7.28 8 10 C7.01 10 6.02 10 5 10 C4.62875 8.88625 4.62875 8.88625 4.25 7.75 C2.90852699 4.79875938 1.39094474 3.15185026 -1 1 C-0.67 0.67 -0.34 0.34 0 0 Z " fill="#595966" transform="translate(7,22)"/>
<path d="M0 0 C2.74767518 3.66356691 4.00054389 5.71661666 5 10 C3.35 10 1.7 10 0 10 C0 6.7 0 3.4 0 0 Z " fill="#323442" transform="translate(8,14)"/>
<path d="M0 0 C3.41589896 -0.29071481 5.73842267 -0.08719244 9 1 C8.67 1.99 8.34 2.98 8 4 C4.7 3.67 1.4 3.34 -2 3 C-1.34 2.01 -0.68 1.02 0 0 Z " fill="#1C1610" transform="translate(18,1)"/>
<path d="M0 0 C1.32 0.66 2.64 1.32 4 2 C3.67 3.98 3.34 5.96 3 8 C2.34 8 1.68 8 1 8 C-0.42944945 5.64561267 -1.08661261 4.51967567 -0.625 1.75 C-0.41875 1.1725 -0.2125 0.595 0 0 Z " fill="#2F5689" transform="translate(30,20)"/>
<path d="M0 0 C0.99 0 1.98 0 3 0 C3.625 1.875 3.625 1.875 4 4 C3.34 4.66 2.68 5.32 2 6 C2 6.99 2 7.98 2 9 C0.68 8.67 -0.64 8.34 -2 8 C-1.34 5.36 -0.68 2.72 0 0 Z " fill="#50647E" transform="translate(23,23)"/>
<path d="M0 0 C0.99 0 1.98 0 3 0 C3.125 2.875 3.125 2.875 3 6 C2.34 6.66 1.68 7.32 1 8 C-1 6 -1 6 -1.1875 3.4375 C-1 1 -1 1 0 0 Z " fill="#163052" transform="translate(20,23)"/>
<path d="M0 0 C0.33 0.99 0.66 1.98 1 3 C1.66 3 2.32 3 3 3 C3 2.01 3 1.02 3 0 C3.66 0 4.32 0 5 0 C5 1.65 5 3.3 5 5 C3.0625 5.5625 3.0625 5.5625 1 6 C0 5 0 5 -0.0625 2.4375 C-0.041875 1.633125 -0.02125 0.82875 0 0 Z " fill="#141417" transform="translate(33,23)"/>
<path d="M0 0 C1.32 0 2.64 0 4 0 C4 0.99 4 1.98 4 3 C3.01 3 2.02 3 1 3 C1 3.66 1 4.32 1 5 C0.34 5 -0.32 5 -1 5 C-1.33 4.01 -1.66 3.02 -2 2 C-1.34 1.34 -0.68 0.68 0 0 Z " fill="#D9925F" transform="translate(22,5)"/>
<path d="M0 0 C-2 3 -2 3 -4.125 3.6875 C-4.74375 3.790625 -5.3625 3.89375 -6 4 C-6 2.68 -6 1.36 -6 0 C-3.50907189 -1.24546405 -2.58919267 -0.7767578 0 0 Z " fill="#985630" transform="translate(22,6)"/>
<path d="M0 0 C0.99 0.99 1.98 1.98 3 3 C3.66 2.67 4.32 2.34 5 2 C4.49396008 4.16874252 4.00016187 5.99967627 3 8 C2.34 7.67 1.68 7.34 1 7 C0.59270772 4.67843403 0.25561323 2.3431213 0 0 Z " fill="#D98852" transform="translate(9,13)"/>
<path d="" fill="#000000" transform="translate(0,0)"/>
<path d="" fill="#000000" transform="translate(0,0)"/>
<path d="" fill="#000000" transform="translate(0,0)"/>
<path d="" fill="#000000" transform="translate(0,0)"/>
<path d="" fill="#000000" transform="translate(0,0)"/>
<path d="" fill="#000000" transform="translate(0,0)"/>
<path d="" fill="#000000" transform="translate(0,0)"/>
<path d="" fill="#000000" transform="translate(0,0)"/>
<path d="" fill="#000000" transform="translate(0,0)"/>
<path d="" fill="#000000" transform="translate(0,0)"/>
</svg>
